<svg width="36" height="40" viewBox="0 0 36 40" fill="none" xmlns="http://www.w3.org/2000/svg">
<path d="M17.9639 0.000699024C11.4245 0.0247507 5.11356 3.60167 1.95071 9.77012C-2.54764 18.5429 1.00012 29.2917 9.85575 33.7479C9.95385 33.7976 10.0678 33.8066 10.1727 33.7732C10.2776 33.7395 10.3647 33.6658 10.4149 33.5686C10.4651 33.4711 10.4738 33.3582 10.4398 33.2543C10.4055 33.1504 10.331 33.0645 10.2326 33.0151C1.76852 28.7557 -1.60982 18.5285 2.69019 10.1432C6.98979 1.7579 17.3175 -1.60147 25.7816 2.65833C34.2457 6.91771 37.6091 17.1598 33.3098 25.5442C31.8107 28.4679 29.499 30.9067 26.6376 32.555C26.4411 32.6702 26.3764 32.9209 26.4926 33.1153C26.6085 33.3099 26.862 33.3741 27.0582 33.259C30.0546 31.5324 32.4793 28.979 34.0493 25.9174C38.5476 17.1447 34.9999 6.39584 26.1442 1.93967C23.9303 0.825631 21.6006 0.204411 19.2695 0.0430927C18.8324 0.0129479 18.4002 -0.00148305 17.964 0.000120283L17.9639 0.000699024ZM17.5579 4.19597C13.4186 4.33097 9.39058 6.29393 6.7954 9.8853C2.36626 16.0149 3.78473 24.5624 9.97184 28.9504V28.9501C10.0602 29.0136 10.1706 29.0399 10.2784 29.0226C10.3863 29.0053 10.4827 28.946 10.5465 28.8581C10.6103 28.7702 10.6359 28.6605 10.6178 28.5538C10.5996 28.4473 10.5394 28.352 10.4504 28.2892C4.62032 24.1546 3.27412 16.1349 7.44774 10.3594C11.6214 4.58381 19.7195 3.25107 25.5496 7.38534C31.3796 11.5199 32.7258 19.5396 28.5522 25.3151C27.8752 26.2518 27.0768 27.1039 26.1735 27.8293V27.8296C26.0728 27.8896 26.0032 27.9903 25.9828 28.1051C25.9624 28.2199 25.9935 28.3379 26.068 28.4283C26.1421 28.5188 26.2525 28.573 26.3703 28.5765C26.4879 28.58 26.6015 28.5329 26.6812 28.4473C27.6411 27.6766 28.4858 26.7848 29.2049 25.7894C33.634 19.6601 32.2156 11.1262 26.0285 6.73903C23.7084 5.09358 21.0393 4.2672 18.3843 4.19594C18.1078 4.18857 17.8336 4.18696 17.5574 4.19594L17.5579 4.19597ZM13.221 11.7815C11.5576 11.7738 9.94905 12.1153 8.69543 12.6435C8.54456 12.7073 8.44743 12.8545 8.44872 13.0168L8.53581 21.306V21.3063V21.3204C8.58729 22.2277 9.07391 22.9563 9.75412 23.4465C10.344 23.8718 11.0845 24.1187 11.8573 24.2511L11.8427 25.3431V25.3716L11.2625 32.785V32.7991C11.1434 35.0234 11.0621 36.6006 11.7411 38.4166H11.7414C11.7495 38.4365 11.7592 38.4557 11.7702 38.4743C12.0027 38.8999 12.2361 39.243 12.4954 39.5089C12.7548 39.7744 13.0536 39.9713 13.4091 39.9973C13.7646 40.0236 14.1126 39.8556 14.381 39.5807C14.6494 39.3059 14.868 38.9259 15.0917 38.4169L15.092 38.4166C15.104 38.3939 15.1137 38.3698 15.1208 38.3451C15.5382 36.5011 15.61 34.8961 15.5268 32.8998C15.4336 30.6646 14.7579 27.807 14.6999 25.6017C14.6893 25.2027 14.6773 24.6797 14.6708 24.165C15.3539 23.9928 15.9921 23.7218 16.4839 23.303C17.057 22.8152 17.4474 22.1251 17.4413 21.3061L17.3542 12.9298H17.3545C17.3503 12.7727 17.2541 12.6322 17.1081 12.5707C15.8678 12.0117 14.5338 11.7882 13.2352 11.7805H13.2206L13.221 11.7815ZM23.2873 11.7815H23.287C23.2724 11.7853 23.2578 11.7901 23.2436 11.7956C23.239 11.7959 23.2335 11.7946 23.229 11.7956C23.2089 11.8036 23.1895 11.8132 23.1711 11.8244C22.1272 12.0104 21.279 12.8561 20.7053 14.0368C20.1066 15.2686 19.7764 16.8884 19.8204 18.6483C19.8547 20.0712 19.8499 21.0474 21.0387 22.5563C21.0432 22.5624 21.0484 22.5646 21.0533 22.5704C22.0903 24.0157 22.3198 24.5102 22.2716 25.9895C22.2713 26.0014 22.2719 26.0062 22.2716 26.0181C22.0181 28.4277 21.6412 31.1792 21.648 33.1726C21.661 34.0278 21.6801 35.081 21.7639 36.0604C21.8478 37.0398 21.9789 37.9264 22.3007 38.5457H22.2862C22.4668 38.8939 22.6711 39.2428 22.9534 39.5224C23.2354 39.8024 23.6272 40.0083 24.0846 39.9964C24.547 39.9839 24.9478 39.7466 25.2017 39.4217C25.4552 39.0969 25.596 38.6922 25.6659 38.2724C25.9182 36.752 26.0127 35.2522 25.8401 33.1145L25.8398 33.1151V33.101C25.5876 30.8408 25.3529 28.3041 25.1 26.0324C24.9261 24.3494 25.7372 23.2514 26.5505 21.9952C27.1167 21.0976 27.5836 19.7382 27.5512 18.4465C27.5059 16.6291 27.0756 14.9872 26.3762 13.7772C25.6802 12.5724 24.672 11.7579 23.5187 11.7803H23.5041C23.4646 11.7794 23.3963 11.7688 23.3011 11.7803C23.2943 11.7813 23.2936 11.7794 23.2865 11.7803L23.2873 11.7815ZM13.221 12.5861H13.2356C13.4739 12.5874 13.7077 12.6396 13.9463 12.6579L14.0188 19.2666L14.0185 19.2663C14.0172 19.3741 14.0593 19.478 14.1354 19.5546C14.2118 19.6313 14.316 19.6745 14.4248 19.6745C14.5336 19.6745 14.6375 19.6313 14.7139 19.5546C14.7903 19.478 14.8324 19.3741 14.8308 19.2663L14.7583 12.7294C15.3692 12.8298 15.9662 12.9953 16.5422 13.2323L16.6293 21.3209C16.6335 21.9017 16.3917 22.3343 15.962 22.7002C15.5324 23.0658 14.903 23.3387 14.1923 23.476H14.1926C13.997 23.5112 13.8559 23.6812 13.8591 23.8781C13.8679 24.4961 13.875 25.1343 13.8883 25.631C13.9498 27.9781 14.6274 30.8316 14.7152 32.9292C14.7958 34.8652 14.7265 36.3734 14.338 38.1153C14.1434 38.5496 13.9427 38.8606 13.7869 39.0203C13.6263 39.1848 13.5457 39.1983 13.4677 39.1928C13.3897 39.1867 13.2547 39.1316 13.0759 38.9485C12.8972 38.7653 12.692 38.4722 12.4812 38.0865C11.8861 36.4573 11.9573 35.0403 12.0752 32.8426L12.6554 25.4151L12.655 25.4154C12.6554 25.4061 12.6554 25.3965 12.655 25.3869L12.6696 23.9358V23.9361C12.6709 23.7296 12.5142 23.5557 12.307 23.5336C11.5115 23.4403 10.7623 23.1828 10.233 22.8008C9.70753 22.4218 9.38958 21.9424 9.34813 21.2923V21.2782L9.26104 13.3188C9.86648 13.0831 10.5522 12.9 11.2917 12.773L11.3642 19.2957C11.3626 19.4032 11.4047 19.5071 11.4811 19.5837C11.5575 19.6604 11.6618 19.7036 11.7705 19.7036C11.879 19.7036 11.9833 19.6604 12.0597 19.5837C12.1361 19.5071 12.1782 19.4032 12.1766 19.2957L12.104 12.687C12.4786 12.6498 12.8364 12.5841 13.2211 12.5863L13.221 12.5861ZM23.4033 12.5861C23.4075 12.5858 23.4409 12.5861 23.5192 12.5861V12.5858C23.5241 12.5861 23.5289 12.5861 23.5338 12.5858C24.2859 12.5665 25.0526 13.1191 25.6661 14.1806C26.2794 15.2421 26.6971 16.7621 26.7394 18.4617C26.7663 19.5385 26.3379 20.8216 25.8691 21.565C25.0749 22.7923 24.0836 24.1414 24.2882 26.1194C24.5394 28.3752 24.7751 30.9054 25.028 33.1736C25.0283 33.1791 25.0277 33.1823 25.028 33.1877C25.1947 35.2652 25.1112 36.681 24.8684 38.1443C24.8146 38.4666 24.7036 38.7552 24.5637 38.9344C24.4239 39.1137 24.283 39.1875 24.0706 39.1929C23.8531 39.1984 23.7096 39.1374 23.5338 38.963C23.358 38.7888 23.1774 38.5066 23.0116 38.1872C22.8086 37.7963 22.6571 36.9304 22.5765 35.9893C22.4958 35.0481 22.4735 34.0119 22.4606 33.1589C22.4541 31.2633 22.8287 28.5115 23.0841 26.0762L23.0844 26.0765C23.0848 26.0669 23.0848 26.0573 23.0844 26.048C23.1414 24.4272 22.7911 23.5928 21.7065 22.0827C21.7016 22.0778 21.6968 22.073 21.6919 22.0682C20.582 20.6672 20.6682 20.0717 20.6333 18.6202C20.5921 16.9732 20.903 15.4688 21.431 14.382C21.9591 13.2952 22.6865 12.6718 23.4037 12.5861L23.4033 12.5861ZM20.7345 30.4009V30.4006C20.7294 30.4054 20.7245 30.4102 20.72 30.415C19.2756 30.7206 17.775 30.7777 16.3106 30.5875C16.197 30.5564 16.0756 30.5757 15.9775 30.6405C15.8794 30.7049 15.8146 30.8088 15.7998 30.9246C15.7849 31.04 15.8214 31.1568 15.8998 31.2437C15.9785 31.3306 16.0911 31.3793 16.209 31.3774C17.765 31.5794 19.3446 31.5153 20.8793 31.1908C21.0742 31.1375 21.1999 30.9506 21.1743 30.752C21.1487 30.5535 20.9797 30.4038 20.7777 30.4006C20.7634 30.3999 20.7488 30.3999 20.7343 30.4006L20.7345 30.4009ZM20.662 34.6536C19.1869 34.8828 17.694 34.9229 16.2089 34.7684C16.1011 34.7568 15.9933 34.7879 15.9088 34.8556C15.8243 34.9229 15.7705 35.0207 15.7589 35.1275C15.7472 35.234 15.7793 35.3411 15.8473 35.4245C15.9153 35.5082 16.014 35.5614 16.1218 35.5726C17.6769 35.7343 19.2475 35.698 20.7922 35.4578C21.0165 35.4222 21.169 35.2132 21.1331 34.9909C21.0968 34.7687 20.8861 34.6176 20.6617 34.6532L20.662 34.6536Z" fill="#273747"/>
</svg>
