<?xml version="1.0" standalone="no"?>
<!DOCTYPE svg PUBLIC "-//W3C//DTD SVG 20010904//EN"
 "http://www.w3.org/TR/2001/REC-SVG-20010904/DTD/svg10.dtd">
<svg version="1.0" xmlns="http://www.w3.org/2000/svg"
 width="512.000000pt" height="512.000000pt" viewBox="0 0 512.000000 512.000000"
 preserveAspectRatio="xMidYMid meet">
<metadata>
Created by potrace 1.14, written by Peter Selinger 2001-2017
</metadata>
<g transform="translate(0.000000,512.000000) scale(0.100000,-0.100000)"
fill="#000000" stroke="none">
<path d="M2245 4954 c-353 -48 -726 -187 -1012 -377 -371 -247 -667 -589 -858
-990 -152 -320 -225 -652 -225 -1027 0 -390 76 -722 245 -1065 125 -255 261
-442 469 -650 376 -374 859 -611 1389 -680 242 -31 581 -16 827 36 255 55 587
195 807 342 371 247 667 589 858 990 152 320 225 652 225 1027 0 390 -76 722
-245 1065 -125 255 -261 442 -469 650 -376 374 -859 611 -1389 680 -146 19
-481 18 -622 -1z m1225 -1719 l0 -105 43 0 c73 0 235 -29 308 -54 192 -67 311
-196 365 -396 24 -91 24 -281 0 -375 -30 -115 -73 -192 -151 -270 -114 -114
-274 -179 -472 -192 l-93 -6 0 -133 0 -134 -110 0 -110 0 0 133 0 134 -97 6
c-401 25 -638 270 -635 657 1 193 49 317 167 435 114 114 268 175 477 191 l88
7 0 103 0 104 110 0 110 0 0 -105z m-1624 57 c170 -37 261 -98 316 -210 32
-64 33 -71 33 -187 0 -109 -2 -125 -26 -176 -46 -98 -138 -171 -253 -200 -26
-6 -45 -13 -43 -15 2 -3 31 -11 63 -19 97 -25 177 -70 232 -130 60 -65 82
-122 89 -232 11 -156 -31 -280 -127 -373 -64 -63 -137 -102 -248 -132 -72 -20
-103 -21 -452 -22 l-375 -1 -3 850 c-1 468 0 856 3 864 4 11 66 12 353 8 298
-4 360 -7 438 -25z"/>
<path d="M3164 2940 c-204 -22 -341 -107 -395 -248 -33 -87 -39 -276 -11 -369
47 -155 141 -238 319 -284 42 -10 98 -19 125 -19 l48 0 0 465 c0 256 -3 464
-7 464 -5 -1 -40 -5 -79 -9z"/>
<path d="M3470 2481 l0 -467 77 8 c42 5 95 13 118 19 66 18 172 79 211 121
118 130 147 379 65 554 -65 139 -189 206 -423 227 l-48 5 0 -467z"/>
<path d="M1272 2858 l3 -273 220 1 c318 2 395 26 451 141 38 77 41 194 6 260
-58 111 -166 143 -484 143 l-198 0 2 -272z"/>
<path d="M1270 2090 l0 -310 224 0 c248 0 306 7 385 47 166 84 202 362 63 484
-82 73 -166 89 -454 89 l-218 0 0 -310z"/>
</g>
</svg>
