<svg viewBox="0 0 20 17" xmlns="http://www.w3.org/2000/svg">
<path d="M7.28534e-07 8.33329C7.69366e-07 7.86623 0.342006 7.48023 0.785733 7.41914L0.909092 7.41072L16.89 7.41119L11.1164 1.57642C10.7606 1.21691 10.7594 0.63277 11.1136 0.271707C11.4357 -0.0565328 11.9406 -0.0874127 12.2971 0.179792L12.3993 0.268897L19.7326 7.67904L19.7506 7.69847C19.7692 7.71839 19.7869 7.73915 19.8038 7.7607L19.7326 7.67904C19.7679 7.71474 19.7998 7.75265 19.8281 7.79234C19.8452 7.81728 19.8618 7.84316 19.8772 7.86991C19.9118 7.92942 19.9387 7.99169 19.9585 8.05572C19.9651 8.07829 19.9713 8.10134 19.9767 8.12474C19.981 8.14259 19.9846 8.16074 19.9876 8.17896C19.9906 8.19871 19.9932 8.21847 19.9952 8.23842C19.9975 8.25843 19.9989 8.27889 19.9996 8.29938C19.9998 8.31073 20 8.32199 20 8.33329L19.9997 8.36393C19.999 8.38665 19.9974 8.40935 19.995 8.43198L20 8.33329C20 8.38598 19.9956 8.43763 19.9873 8.4879C19.9836 8.5108 19.9788 8.5338 19.9732 8.55663C19.9687 8.57477 19.9638 8.59258 19.9584 8.61016C19.9519 8.63105 19.9446 8.6521 19.9365 8.67291C19.928 8.69439 19.9189 8.71539 19.9091 8.73596C19.9016 8.7517 19.8933 8.76793 19.8844 8.78396C19.8677 8.81402 19.85 8.84222 19.8309 8.86932C19.8279 8.87357 19.8245 8.87825 19.8211 8.88291C19.7908 8.92409 19.7594 8.96041 19.7254 8.99405L12.3993 16.3979C12.0436 16.7574 11.468 16.7562 11.1137 16.3952C10.7916 16.067 10.7633 15.5544 11.0281 15.1938L11.1163 15.0905L16.8889 9.25675L0.909092 9.25587C0.407014 9.25587 6.8399e-07 8.84282 7.28534e-07 8.33329Z" />
</svg>
