<svg viewBox="0 0 21 21" xmlns="http://www.w3.org/2000/svg">
<path d="M10.5 1.3125C5.42637 1.3125 1.3125 5.42637 1.3125 10.5C1.3125 15.5736 5.42637 19.6875 10.5 19.6875C15.5736 19.6875 19.6875 15.5736 19.6875 10.5C19.6875 5.42637 15.5736 1.3125 10.5 1.3125ZM10.5 18.1289C6.2877 18.1289 2.87109 14.7123 2.87109 10.5C2.87109 6.2877 6.2877 2.87109 10.5 2.87109C14.7123 2.87109 18.1289 6.2877 18.1289 10.5C18.1289 14.7123 14.7123 18.1289 10.5 18.1289Z"/>
<path d="M14.0827 13.0963L11.1583 10.9819V5.90625C11.1583 5.81602 11.0845 5.74219 10.9942 5.74219H10.0078C9.91758 5.74219 9.84375 5.81602 9.84375 5.90625V11.5541C9.84375 11.6074 9.86836 11.6566 9.91143 11.6874L13.3034 14.1606C13.3772 14.214 13.4798 14.1976 13.5331 14.1258L14.1196 13.326C14.1729 13.2501 14.1565 13.1476 14.0827 13.0963Z" />
</svg>
