<svg viewBox="0 0 16 16" xmlns="http://www.w3.org/2000/svg"><path d="M12.707 3.293C12.5195 3.10553 12.2652 3.00021 12 3.00021C11.7348 3.00021 11.4805 3.10553 11.293 3.293L8 6.586L4.707 3.293C4.5184 3.11084 4.2658 3.01005 4.0036 3.01233C3.7414 3.0146 3.49059 3.11977 3.30518 3.30518C3.11977 3.49059 3.01461 3.7414 3.01233 4.0036C3.01005 4.2658 3.11084 4.5184 3.293 4.707L6.586 8L3.293 11.293C3.19749 11.3852 3.12131 11.4956 3.0689 11.6176C3.01649 11.7396 2.9889 11.8708 2.98775 12.0036C2.9866 12.1364 3.0119 12.2681 3.06218 12.391C3.11246 12.5139 3.18671 12.6255 3.28061 12.7194C3.3745 12.8133 3.48615 12.8875 3.60905 12.9378C3.73194 12.9881 3.86362 13.0134 3.9964 13.0123C4.12918 13.0111 4.2604 12.9835 4.38241 12.9311C4.50441 12.8787 4.61475 12.8025 4.707 12.707L8 9.414L11.293 12.707C11.4816 12.8892 11.7342 12.99 11.9964 12.9877C12.2586 12.9854 12.5094 12.8802 12.6948 12.6948C12.8802 12.5094 12.9854 12.2586 12.9877 11.9964C12.99 11.7342 12.8892 11.4816 12.707 11.293L9.414 8L12.707 4.707C12.8945 4.51947 12.9998 4.26516 12.9998 4C12.9998 3.73484 12.8945 3.48053 12.707 3.293Z" fill="currentColor"></path></svg>