<svg width="15" height="17" viewBox="0 0 15 17" xmlns="http://www.w3.org/2000/svg">
<path d="M3 8H4.8V9.66667H3V8ZM3 11.3333H4.8V13H3V11.3333ZM6.6 8H8.4V9.66667H6.6V8ZM6.6 11.3333H8.4V13H6.6V11.3333ZM10.2 8H12V9.66667H10.2V8ZM10.2 11.3333H12V13H10.2V11.3333Z"/>
<path d="M1.66667 17H13.3333C14.2525 17 15 16.2376 15 15.3V3.4C15 2.46245 14.2525 1.7 13.3333 1.7H11.6667V0H10V1.7H5V0H3.33333V1.7H1.66667C0.7475 1.7 0 2.46245 0 3.4V15.3C0 16.2376 0.7475 17 1.66667 17ZM13.3333 5.1L13.3342 15.3H1.66667V5.1H13.3333Z"/>
</svg>
