<svg width="20" height="24" viewBox="0 0 20 24"  xmlns="http://www.w3.org/2000/svg">
<path d="M12.8704 0C12.9209 0 12.9704 0.00438387 13.0186 0.0128023L13.1785 0.0141356C13.418 0.0141356 13.6472 0.114724 13.813 0.292675L19.7549 6.667C19.9122 6.83575 20 7.06064 20 7.29459V18.3977C20 21.4121 17.6257 24 14.7455 24H5.3765C2.34676 24 0 21.536 0 18.3977V5.42554C0 2.45202 2.45919 0.0141356 5.3765 0.0141356L12.7225 0.0127513C12.7706 0.00436614 12.82 0 12.8704 0ZM11.9904 1.82434L5.3765 1.8264C3.41606 1.8264 1.75932 3.46878 1.75932 5.42554V18.3977C1.75932 20.5428 3.32601 22.1877 5.3765 22.1877H14.7455C16.6311 22.1877 18.2407 20.4334 18.2407 18.3977L18.2395 8.43667L17.2123 8.44038C16.8211 8.43989 16.3763 8.43904 15.8817 8.43788C13.8053 8.43336 12.1113 6.75788 11.9969 4.64833L11.9907 4.42071L11.9904 1.82434ZM9.54762 8.0834C9.99296 8.0834 10.361 8.4243 10.4193 8.86658L10.4273 8.98953L10.4269 14.7337L12.2536 12.8475C12.5964 12.4928 13.1534 12.4916 13.4977 12.8448C13.8106 13.1658 13.84 13.6691 13.5853 14.0244L13.5003 14.1262L10.1705 17.5707L10.1191 17.6197C10.107 17.6304 10.0945 17.6408 10.0818 17.6508L10.1705 17.5707C10.1273 17.6154 10.0808 17.6544 10.0317 17.6878C10.0147 17.6992 9.99649 17.7106 9.97789 17.7214C9.96211 17.7308 9.94662 17.7391 9.93095 17.747C9.91171 17.7563 9.89194 17.7652 9.87182 17.7735C9.85191 17.7819 9.83114 17.7895 9.81017 17.7962C9.79419 17.8011 9.77808 17.8057 9.7618 17.8099C9.7383 17.8163 9.71471 17.8213 9.69099 17.8253C9.67698 17.8274 9.66282 17.8294 9.64856 17.8311C9.62098 17.8347 9.59312 17.8367 9.56525 17.8373C9.55951 17.8369 9.55357 17.837 9.54762 17.837L9.53007 17.8373C9.50141 17.8367 9.47277 17.8347 9.44426 17.8313L9.54762 17.837C9.4997 17.837 9.45267 17.833 9.40683 17.8254C9.38107 17.8217 9.35562 17.8163 9.33039 17.8097C9.31744 17.8058 9.30407 17.8019 9.29083 17.7978C9.26524 17.7903 9.24019 17.7812 9.21551 17.7709C9.20235 17.7647 9.18932 17.7588 9.17645 17.7526C9.15583 17.7435 9.13552 17.7328 9.11556 17.7212C9.09791 17.7101 9.08016 17.6989 9.06283 17.6871C9.04895 17.6785 9.03562 17.6689 9.0225 17.6588L9.01343 17.6508C9.00071 17.6408 8.98826 17.6304 8.97609 17.6197L8.92371 17.5706L5.59507 14.1261C5.25233 13.7714 5.2536 13.1977 5.59792 12.8446C5.91093 12.5237 6.39969 12.4956 6.74348 12.7596L6.84194 12.8476L8.6676 14.7373L8.66796 8.98953C8.66796 8.48909 9.0618 8.0834 9.54762 8.0834ZM13.7497 2.84042L13.7501 4.42071C13.7501 5.63681 14.7052 6.62306 15.8855 6.62562L17.2777 6.62562L13.7497 2.84042Z" />
</svg>
