<svg xmlns="http://www.w3.org/2000/svg" width="13" height="18" viewBox="0 0 13 18"><path d="M12.083 9.57l-5.028 8.173a.547.547 0 0 1-.461.257H6.59a.548.548 0 0 1-.46-.249L.97 9.656A6.193 6.193 0 0 1 0 6.328C0 2.839 2.916 0 6.5 0S13 2.839 13 6.328a6.192 6.192 0 0 1-.917 3.242zM6.5 1.047c-2.987 0-5.424 2.373-5.424 5.281 0 .983.287 1.941.815 2.772l4.691 7.36 4.571-7.431c.5-.814.767-1.747.767-2.701 0-2.908-2.433-5.281-5.42-5.281zm0 8.445c-1.816 0-3.25-1.431-3.25-3.164 0-1.745 1.458-3.164 3.25-3.164s3.25 1.419 3.25 3.164c0 1.714-1.412 3.164-3.25 3.164zm0-5.281c-1.195 0-2.174.954-2.174 2.117 0 1.166.973 2.116 2.174 2.116 1.22 0 2.17-.967 2.17-2.116 0-1.163-.975-2.117-2.17-2.117z"/></svg>